<?xml version="1.0" standalone="no"?>
<!DOCTYPE svg PUBLIC "-//W3C//DTD SVG 20010904//EN"
 "http://www.w3.org/TR/2001/REC-SVG-20010904/DTD/svg10.dtd">
<svg version="1.0" xmlns="http://www.w3.org/2000/svg"
 width="224.000000pt" height="224.000000pt" viewBox="0 0 224.000000 224.000000"
 preserveAspectRatio="xMidYMid meet">
<metadata>
Created by potrace 1.11, written by Peter Selinger 2001-2013
</metadata>
<g transform="translate(0.000000,224.000000) scale(0.100000,-0.100000)"
fill="#000000" stroke="none">
<path d="M6 1611 c-2 -3 -2 -103 -1 -221 3 -239 12 -287 70 -405 89 -181 249
-302 464 -351 14 -3 114 -7 222 -9 l196 -3 -1 156 c-1 86 -4 162 -8 167 -4 6
-72 10 -174 9 -217 -1 -270 14 -354 97 -49 49 -87 125 -96 192 l-7 47 320 0
320 0 -1 163 -1 162 -473 1 c-260 0 -475 -2 -476 -5z"/>
<path d="M1279 1594 c0 -13 -1 -80 -1 -149 0 -69 1 -132 1 -140 1 -13 23 -15
158 -13 l157 3 -1 143 c0 78 -1 150 -2 161 -1 17 -11 19 -156 19 l-155 0 -1
-24z"/>
<path d="M1917 1078 c0 -244 2 -446 2 -449 1 -4 72 -6 159 -5 l157 1 -1 220
c-1 150 -5 234 -14 265 -7 25 -14 50 -16 57 -5 26 -54 124 -82 165 -47 68
-175 188 -201 188 -3 0 -5 -199 -4 -442z"/>
<path d="M1279 938 c-1 -23 -1 -261 0 -291 l1 -24 157 1 157 1 1 153 c0 84 -2
158 -5 165 -4 9 -47 12 -158 12 -138 0 -152 -2 -153 -17z"/>
</g>
</svg>
